<svg xmlns="http://www.w3.org/2000/svg" viewBox="0 0 96 95.8665"><defs><style>.cls-1{fill:#262626;}</style></defs><g id="Layer_2" data-name="Layer 2"><g id="Social_Icons_Dark_Theme" data-name="Social Icons Dark Theme"><g id="CodePen_Grey" data-name="CodePen Grey"><path class="cls-1" d="M95.9971,30.3949a3.0485,3.0485,0,0,0-1.438-2.56C48.8271.7085,49.4742-1.3127,46.5064.4808,11.8468,22.0267,2.2,26.8319.8143,28.51-.444,29.8.1312,31.777.1312,61.6552.0473,65.0545,31.06,83.4727,46.1429,95.2243a3.2134,3.2134,0,0,0,4.0064-.1159c44.8332-31.78,45.9237-30.5013,45.8478-33.4532,0,0-.0479-31.6637,0-31.26Zm-6.06,25.9278L74.4544,46.9l15.4823-10.773Zm-21.0785-12.83L50.9912,32.62V8.3737l36.453,22.189ZM48.0642,58.0043,32.5818,47.2314l15.4824-9.4228,15.4823,9.4228ZM45,8.37v24.262c-6.9463,4.31-12.8181,7.909-17.7792,10.9207L8.5465,30.5627ZM21.6043,46.9478C14.1188,51.45,9.23,54.31,6.054,56.2148V36.1269Zm5.3126,3.6908L45,63.217V87.18L8.5465,61.819ZM50.9912,87.1835V63.221L69.0739,50.6426l18.37,11.18Z"/></g></g></g></svg>