<svg xmlns="http://www.w3.org/2000/svg" viewBox="0 0 96 96"><defs><style>.cls-1{fill:#262626;}</style></defs><g id="Layer_2" data-name="Layer 2"><g id="Social_Icons_Dark_Theme" data-name="Social Icons Dark Theme"><g id="CodePen_Grey" data-name="CodePen Grey"><path class="cls-1" d="M48,0C21.6189,0,0,21.8064,0,48.1875a48,48,0,0,0,96,0C96,21.8064,74.3811,0,48,0Zm8.3633,89.5313a42.6119,42.6119,0,0,1-16.875,0V76.3689a7.9969,7.9969,0,0,1,1.9688-5.7942,61.5436,61.5436,0,0,0,3.487-5.1182l-4.3308-.6752C29.4754,63.15,25.0882,57.356,23.3443,52.856A19.13,19.13,0,0,1,26.326,34.519a3.3914,3.3914,0,0,0,.6753-3.2629,16.5694,16.5694,0,0,1-.1692-8.269c2.9824.4262,6.049,2.5627,8.6067,4.1067a4.0416,4.0416,0,0,0,2.362.5625,40.8754,40.8754,0,0,1,10.1814-1.4627,34.4646,34.4646,0,0,1,9.3941,1.35,4.0588,4.0588,0,0,0,3.0373-.45c2.6734-1.629,5.636-3.6922,8.606-4.1067a16.5764,16.5764,0,0,1-.1685,8.269,3.388,3.388,0,0,0,.6753,3.2629,19.1314,19.1314,0,0,1,2.981,18.337c-1.7439,4.5-6.1311,10.2941-17.2691,11.9253l-4.3308.6752a60.1234,60.1234,0,0,0,3.4878,5.1182,8,8,0,0,1,1.968,5.7942Zm5.625-1.5879V76.4122a13.4894,13.4894,0,0,0-1.5754-6.9192c8.55-2.3057,14.6257-7.3689,17.3254-14.625a24.7313,24.7313,0,0,0-3.2065-23.0625c.8445-3.7683.8445-9.7874-1.1807-12.6a4.3911,4.3911,0,0,0-3.7126-1.9123h-.0564c-4.3616.2358-7.7945,2.4323-11.4749,4.6684a39.6732,39.6732,0,0,0-10.2378-1.35,38.8576,38.8576,0,0,0-10.0678,1.35c-3.8746-2.3364-7.2745-4.4385-11.7569-4.6684a4.3147,4.3147,0,0,0-3.5442,1.9123c-2.0244,2.8125-2.0244,8.8316-1.1806,12.6A24.7535,24.7535,0,0,0,18.1133,54.868c2.7,7.2561,8.7752,12.3193,17.3255,14.625a12.23,12.23,0,0,0-1.4678,4.9284,7.4979,7.4979,0,0,1-4.6179.38,6.2247,6.2247,0,0,1-3.6087-3.0879c-2.2339-3.753-6.0388-6.8167-10.3711-6.4182l.4944,5.603c2.0061-.1838,4.0027,1.9387,5.04,3.6885a11.579,11.579,0,0,0,12.9558,5.7722v7.5842a42.3758,42.3758,0,1,1,28.125,0Z"/></g></g></g></svg>