<svg xmlns="http://www.w3.org/2000/svg" viewBox="0 0 96 96"><defs><style>.cls-1{fill:#262626;}</style></defs><g id="Layer_2" data-name="Layer 2"><g id="Social_Icons_Dark_Theme" data-name="Social Icons Dark Theme"><g id="Behance_Grey" data-name="Behance Grey"><path class="cls-1" d="M70.0137,0H25.9863A25.9863,25.9863,0,0,0,0,25.9863V70.0137A25.9863,25.9863,0,0,0,25.9863,96H70.0144A25.9855,25.9855,0,0,0,96,70.0144V25.9863A25.9863,25.9863,0,0,0,70.0137,0Zm.0036,90.375H25.9834A20.3584,20.3584,0,0,1,5.625,70.0166V25.9834A20.3584,20.3584,0,0,1,25.9834,5.625H70.0173A20.3576,20.3576,0,0,1,90.375,25.9827V70.0173A20.3576,20.3576,0,0,1,70.0173,90.375Z"/><path class="cls-1" d="M41.0873,46.5294q4.62-2.0118,4.6216-8.6465,0-9.57-10.9289-9.57H24.2866a3.908,3.908,0,0,0-2.1746.5981,1.8512,1.8512,0,0,0-.9245,1.6311V65.8875a1.88,1.88,0,0,0,.87,1.5227,3.6126,3.6126,0,0,0,2.2288.6523H35.8135a11.1567,11.1567,0,0,0,7.9381-2.746q2.9359-2.7453,2.9359-8.7819V55.3925a9.9372,9.9372,0,0,0-1.4141-5.7914A8.9993,8.9993,0,0,0,41.0873,46.5294ZM28.125,34.5h5.9991a4.2377,4.2377,0,0,1,3.216,1.2158,4.6142,4.6142,0,0,1,1.162,3.3237,4.9354,4.9354,0,0,1-1.1081,3.4052,4.0812,4.0812,0,0,1-3.2153,1.2428H28.125ZM39.5625,55.947q0,5.928-5.2829,5.928H28.125V49.3125H34.28a5.2987,5.2987,0,0,1,3.9484,1.36,6.1217,6.1217,0,0,1,1.3345,4.4051Z"/><path class="cls-1" d="M71.4788,57a12.479,12.479,0,0,0,1.8279-.1077,5.0866,5.0866,0,0,0,1.5326-.539,2.6456,2.6456,0,0,0,1.2365-1.4817,7.5078,7.5078,0,0,0,.4039-2.6668,9.4668,9.4668,0,0,0-3.2533-7.3506A11.3047,11.3047,0,0,0,65.402,41.93a11.7814,11.7814,0,0,0-8.3354,3.21,10.1342,10.1342,0,0,0-3.4416,7.6714v4.6238a10.0715,10.0715,0,0,0,3.63,8.0793,14.02,14.02,0,0,0,9.3837,3.074,13.8294,13.8294,0,0,0,6.7486-1.4964q2.7147-1.4952,2.7162-3.02a3.5521,3.5521,0,0,0-.7529-2.04,2.24,2.24,0,0,0-1.8823-1.0613,8.064,8.064,0,0,0-2.5815,1.0342,8.6613,8.6613,0,0,1-4.0331,1.0334,6.8826,6.8826,0,0,1-4.57-1.4414,4.6908,4.6908,0,0,1-1.7208-3.7815V57ZM60.5625,51.4519a3.4526,3.4526,0,0,1,1.4143-2.87,5.6591,5.6591,0,0,1,6.7192.0249,3.5516,3.5516,0,0,1,1.3873,2.8968,1.3438,1.3438,0,0,1-.3538,1.092,2.0219,2.0219,0,0,1-1.2239.28H60.5625Z"/><path class="cls-1" d="M73.9464,33.375H56.4327a2.8612,2.8612,0,0,0-2.87,2.4935A2.8139,2.8139,0,0,0,56.3578,39H73.87a2.8625,2.8625,0,0,0,2.8712-2.4924A2.8137,2.8137,0,0,0,73.9464,33.375Z"/></g></g></g></svg>