<svg xmlns="http://www.w3.org/2000/svg" xmlns:xlink="http://www.w3.org/1999/xlink" viewBox="0 0 621.1994 120.5904"><defs><style>.cls-1,.cls-5{fill:none;}.cls-2{clip-path:url(#clip-path);}.cls-3{fill:#262626;}.cls-4{fill:#00c853;}.cls-5{stroke:#262626;stroke-miterlimit:10;stroke-width:6px;}</style><clipPath id="clip-path" transform="translate(0 0.0001)"><rect class="cls-1" width="96.4142" height="120.58"/></clipPath></defs><g id="Layer_2" data-name="Layer 2"><g id="Layer_1-2" data-name="Layer 1"><g id="Square_Type_Logo_Medium_Grey" data-name="Square Type Logo Medium Grey"><g class="cls-2"><path class="cls-3" d="M4.9826,4.9826H91.4315v110.615H4.9826ZM0,0V120.58H96.4142V0Z" transform="translate(0 0.0001)"/><polygon class="cls-3" points="76.484 9.965 76.484 86.982 14.948 25.446 14.948 110.864 9.965 110.864 9.965 13.418 71.501 74.954 71.501 9.965 76.484 9.965"/><polygon class="cls-3" points="86.449 9.965 86.449 110.899 24.913 49.363 24.913 110.864 19.931 110.864 19.931 37.335 81.466 98.871 81.466 9.965 86.449 9.965"/><polygon class="cls-3" points="69.01 19.931 69.01 24.913 42.352 24.913 42.352 42.333 37.37 37.35 37.37 19.931 69.01 19.931"/><polygon class="cls-3" points="37.37 65.293 42.352 70.275 42.352 110.864 37.37 110.864 37.37 65.293"/><polygon class="cls-3" points="69.01 9.965 69.01 14.948 32.387 14.948 32.387 32.367 27.405 27.385 27.405 9.965 69.01 9.965"/><polygon class="cls-3" points="69.01 42.353 69.01 47.335 47.353 47.335 42.37 42.353 69.01 42.353"/><polygon class="cls-3" points="69.01 52.318 69.01 57.3 57.32 57.3 52.338 52.318 69.01 52.318"/><polygon class="cls-3" points="27.405 55.327 32.387 60.31 32.387 110.864 27.405 110.864 27.405 55.327"/></g></g><path class="cls-3" d="M134.6461,44.1577l-14.209-19.49v19.49H112.66V10.5547h6.8648l14.353,19.5859V10.5547h7.7769v33.603Z" transform="translate(0 0.0001)"/><path class="cls-3" d="M148.4679,44.1577V10.5547h7.7768v33.603Z" transform="translate(0 0.0001)"/><path class="cls-3" d="M186.7247,19.5317a11.0919,11.0919,0,0,0-7.0567-2.8325c-5.5683,0-9.6005,4.7525-9.6005,10.6572,0,6.1924,3.4082,10.6568,9.5527,10.6568a10.4717,10.4717,0,0,0,7.0566-2.9282l4.4165,5.5683a18.96,18.96,0,0,1-11.809,4.0806c-10.1289,0-17.4737-7.2485-17.4737-17.3775A17.47,17.47,0,0,1,179.62,9.9785c4.0806,0,7.2969,1.2964,10.8491,3.5527Z" transform="translate(0 0.0001)"/><path class="cls-3" d="M216.1,44.1577V30.0923H203.2349V44.1577h-7.7768V10.5547h7.7768V23.66H216.1V10.5547h7.7763v33.603Z" transform="translate(0 0.0001)"/><path class="cls-3" d="M247.1554,44.7339a17.3809,17.3809,0,1,1,17.7138-17.3775A17.3885,17.3885,0,0,1,247.1554,44.7339Zm0-28.0347c-5.4722,0-9.4566,4.7046-9.4566,10.6572s3.9844,10.6568,9.4566,10.6568,9.457-4.7046,9.457-10.6568S252.628,16.6992,247.1554,16.6992Z" transform="translate(0 0.0001)"/><path class="cls-3" d="M270.4337,44.1577V10.5547h7.7768v27.17h13.4409v6.4326Z" transform="translate(0 0.0001)"/><path class="cls-3" d="M317.5714,44.1577l-1.9683-5.9043H304.5142l-2.1123,5.9043h-8.5927l13.9692-33.603h6.1929L326.5,44.1577ZM306.7706,32.06h6.7207l-3.2163-9.6967h-.0484Z" transform="translate(0 0.0001)"/><path class="cls-3" d="M342.002,16.5073c-1.7763,0-3.6484.96-3.6484,2.88,0,2.4482,3.0244,3.0239,5.1846,3.792,4.7519,1.6323,10.56,3.84,10.56,11.185,0,7.2007-6.9121,10.3692-13.0566,10.3692-5.28,0-9.4092-2.1123-13.1055-5.8565l5.041-4.9448c2.5918,2.4,4.56,4.2725,8.16,4.2725,2.3525,0,4.7041-1.104,4.7041-3.6963,0-2.64-3.12-3.6963-6.1446-4.8-4.4638-1.68-9.12-3.7925-9.12-10.273,0-6.3847,5.7119-9.4086,11.3291-9.4086a17.96,17.96,0,0,1,11.4248,4.1284l-4.3681,5.4721C346.9942,17.9956,344.5938,16.5073,342.002,16.5073Z" transform="translate(0 0.0001)"/><path class="cls-3" d="M379.4415,30.9087v13.249h-7.7774V10.5547h19.25v6.4326H379.4415v7.4888h11.4726v6.4326Z" transform="translate(0 0.0001)"/><path class="cls-3" d="M415.3946,44.1577l-1.9687-5.9043H402.337l-2.1123,5.9043h-8.5928l13.97-33.603h6.1924l12.5293,33.603ZM404.5938,32.06h6.72l-3.2159-9.6967H408.05Z" transform="translate(0 0.0001)"/><path class="cls-3" d="M437.1358,37.7251h14.7373v6.4326H426.7677V40.0293l13.4892-23.042H427.1514V10.5547H450.77v3.8887Z" transform="translate(0 0.0001)"/><path class="cls-3" d="M464.879,37.7251h14.7373v6.4326H454.5108V40.0293L468,16.9873H454.8946V10.5547h23.6182v3.8887Z" transform="translate(0 0.0001)"/><path class="cls-3" d="M498.7686,44.7339a17.3809,17.3809,0,1,1,17.7129-17.3775A17.3886,17.3886,0,0,1,498.7686,44.7339Zm0-28.0347c-5.4726,0-9.457,4.7046-9.457,10.6572s3.9844,10.6568,9.457,10.6568,9.4561-4.7046,9.4561-10.6568S504.24,16.6992,498.7686,16.6992Z" transform="translate(0 0.0001)"/><path class="cls-3" d="M522.046,44.1577V10.5547h7.7763v27.17h13.4415v6.4326Z" transform="translate(0 0.0001)"/><path class="cls-3" d="M569.1837,44.1577l-1.9678-5.9043H556.127l-2.1123,5.9043H545.422l13.9687-33.603h6.1924l12.5293,33.603ZM558.3829,32.06h6.7207l-3.2168-9.6967h-.0479Z" transform="translate(0 0.0001)"/><path class="cls-3" d="M582.2852,10.5547h10.9453c5.5206,0,12.5772,2.8325,12.5772,10.2251,0,5.04-3.3125,7.92-6.9609,9.3608,2.9765,4.1284,7.873,10.9448,10.1289,14.0171h-9.6973l-8.88-13.105h-.3369v13.105h-7.7764ZM590.0616,24.62h2.0645c3.12,0,5.4248-1.104,5.4248-3.6963,0-2.3525-1.8243-3.9365-4.5127-3.9365h-2.9766Z" transform="translate(0 0.0001)"/><path class="cls-3" d="M613.1007,44.1577V10.5547h7.7763v33.603Z" transform="translate(0 0.0001)"/><path class="cls-4" d="M116.127,77.395V88.1577h-3.4555V62.9609H125.45v3.0957H116.127v8.2427H125.45V77.395Z" transform="translate(0 0.0001)"/><path class="cls-4" d="M144.0977,88.1577l-7.559-10.6553h-2.5918V88.1577h-3.4556V62.9609h7.4873c3.8516,0,8.603,2.0157,8.603,7.2349,0,4.2832-3.06,6.4434-6.1552,7.0918l7.9907,10.87Zm-6.2993-22.1011h-3.8515v8.35h3.1318c3.3477,0,5.831-1.2226,5.831-4.1035C142.91,67.7485,140.858,66.0566,137.7984,66.0566Z" transform="translate(0 0.0001)"/><path class="cls-4" d="M163.7179,88.59a13.031,13.031,0,1,1,12.9585-13.0312A12.8757,12.8757,0,0,1,163.7179,88.59Zm0-22.9658c-5.3633,0-9.2872,4.3555-9.2872,9.9346s3.9239,9.9355,9.2872,9.9355,9.2866-4.3554,9.2866-9.9355S169.0811,65.6245,163.7179,65.6245Z" transform="translate(0 0.0001)"/><path class="cls-4" d="M199.5367,88.1577l-13.8223-18.79v18.79h-3.4555V62.9609h3.0239l13.8579,18.79v-18.79h3.4556V88.1577Z" transform="translate(0 0.0001)"/><path class="cls-4" d="M216.53,66.0566V88.1577h-3.4556V66.0566h-6.3354V62.9609h16.1259v3.0957Z" transform="translate(0 0.0001)"/><path class="cls-4" d="M236.0064,88.1577V62.9609h15.1182v3.0957H239.462v7.5591h11.6626v3.0957H239.462V85.062h11.6626v3.0957Z" transform="translate(0 0.0001)"/><path class="cls-4" d="M274.1637,88.1577l-13.8223-18.79v18.79h-3.4556V62.9609H259.91l13.858,18.79v-18.79h3.4555V88.1577Z" transform="translate(0 0.0001)"/><path class="cls-4" d="M284.0655,62.9609h6.8032c6.4073,0,13.5342,3.3833,13.5342,12.4908,0,9.3222-7.0552,12.706-13.894,12.706h-6.4434Zm6.1553,3.0957h-2.7V85.062h1.188c7.1992,0,12.0224-2.2676,12.0224-9.2861C300.7315,69.4048,296.8438,66.0566,290.2208,66.0566Z" transform="translate(0 0.0001)"/><path class="cls-4" d="M338.2432,81.9663h.0713l5.292-19.0054h3.6709l-7.1992,25.1968h-3.4551l-5.039-19.1855h-.0723L326.04,88.1577h-3.3833l-6.9111-25.1968h3.8154L324.6,81.9663h.0722l5.2915-19.0054h3.2393Z" transform="translate(0 0.0001)"/><path class="cls-4" d="M351.24,88.1577V62.9609h15.1182v3.0957H354.6964v7.5591h11.6621v3.0957H354.6964V85.062h11.6621v3.0957Z" transform="translate(0 0.0001)"/><path class="cls-4" d="M372.12,62.9609h6.0107a12.5547,12.5547,0,0,1,6.6954,1.584,5.9781,5.9781,0,0,1,2.664,5.2193c0,2.375-1.08,4.1386-3.8515,5.2187,3.2392.9727,4.8955,3.0234,4.8955,6.0117a6.5092,6.5092,0,0,1-4.1036,6.1553,18.0168,18.0168,0,0,1-6.623,1.0078H372.12ZM382.5948,66.92c-1.2959-.8281-3.1318-.936-5.291-.936h-1.7285V73.76h2.4121c3.7793,0,6.0469-1.1885,6.0469-3.8165A3.2386,3.2386,0,0,0,382.5948,66.92Zm-2.9873,9.8633h-4.0322v8.3506h1.9082a13.1413,13.1413,0,0,0,5.3271-.7559,3.4214,3.4214,0,0,0,2.0518-3.3476C384.8624,78.51,383.0264,76.7837,379.6075,76.7837Z" transform="translate(0 0.0001)"/><path class="cls-4" d="M403.1153,62.9609h6.8037c6.4073,0,13.5342,3.3833,13.5342,12.4908,0,9.3222-7.0557,12.706-13.8945,12.706h-6.4434Zm6.1553,3.0957h-2.6992V85.062h1.1875c7.1992,0,12.0224-2.2676,12.0224-9.2861C419.7813,69.4048,415.8936,66.0566,409.2706,66.0566Z" transform="translate(0 0.0001)"/><path class="cls-4" d="M429.0352,88.1577V62.9609h15.1182v3.0957H432.49v7.5591h11.6631v3.0957H432.49V85.062h11.6631v3.0957Z" transform="translate(0 0.0001)"/><path class="cls-4" d="M459.8858,88.1577h-3.0234l-9.6475-25.1968h3.9961l7.3067,19.9419h.0361L465.86,62.9609h3.78Z" transform="translate(0 0.0001)"/><path class="cls-4" d="M473.422,88.1577V62.9609H488.54v3.0957H476.877v7.5591H488.54v3.0957H476.877V85.062H488.54v3.0957Z" transform="translate(0 0.0001)"/><path class="cls-4" d="M494.3018,88.1577V62.9609h3.4551V85.062h10.9424v3.0957Z" transform="translate(0 0.0001)"/><path class="cls-4" d="M522.92,88.59a13.031,13.031,0,1,1,12.958-13.0312A12.8756,12.8756,0,0,1,522.92,88.59Zm0-22.9658c-5.3633,0-9.2871,4.3555-9.2871,9.9346s3.9238,9.9355,9.2871,9.9355,9.2871-4.3554,9.2871-9.9355S528.2833,65.6245,522.92,65.6245Z" transform="translate(0 0.0001)"/><path class="cls-4" d="M548.9845,78.0786h-4.0674V88.1577H541.462V62.9609h7.5225c4.0673,0,8.8916,2.0157,8.8916,7.523C557.8761,76.063,553.088,78.0786,548.9845,78.0786Zm-.18-12.022h-3.8877v8.9263h3.1679c3.4913,0,6.1192-1.1514,6.1192-4.3906C554.2042,67.7485,552.0079,66.0566,548.8048,66.0566Z" transform="translate(0 0.0001)"/><path class="cls-4" d="M562.0177,88.1577V62.9609h15.1181v3.0957H565.4727v7.5591h11.6631v3.0957H565.4727V85.062h11.6631v3.0957Z" transform="translate(0 0.0001)"/><path class="cls-4" d="M596.503,88.1577l-7.5586-10.6553h-2.5918V88.1577h-3.4551V62.9609h7.4864c3.8515,0,8.6035,2.0157,8.6035,7.2349,0,4.2832-3.06,6.4434-6.1553,7.0918l7.9912,10.87Zm-6.2988-22.1011h-3.8516v8.35h3.1319c3.3476,0,5.831-1.2226,5.831-4.1035C595.3155,67.7485,593.2638,66.0566,590.2042,66.0566Z" transform="translate(0 0.0001)"/><path class="cls-4" d="M112.6715,94.9614h6.8032c6.4072,0,13.5342,3.3828,13.5342,12.49,0,9.3222-7.0547,12.706-13.8941,12.706h-6.4433Zm6.1552,3.0957h-2.7V117.062h1.188c7.1992,0,12.0225-2.2676,12.0225-9.2861C129.3375,101.4048,125.45,98.0571,118.8267,98.0571Z" transform="translate(0 0.0001)"/><path class="cls-4" d="M138.5909,120.1577V94.9614h3.4556v25.1963Z" transform="translate(0 0.0001)"/><path class="cls-4" d="M161.63,109.2876v-3.0957h9.8628v9.5742a13.0234,13.0234,0,0,1-10.3311,4.8242c-7.7026,0-13.5342-5.2207-13.5342-13.0312,0-7.4512,6.0835-13.03,13.5342-13.03a12.9443,12.9443,0,0,1,9.7549,4.4639l-2.4478,2.0156a9.96,9.96,0,0,0-7.3071-3.3838,9.5883,9.5883,0,0,0-9.8628,9.9346c0,6.1191,4.1035,9.9355,9.8628,9.9355a9.8466,9.8466,0,0,0,6.8755-2.6289v-5.5781Z" transform="translate(0 0.0001)"/><path class="cls-4" d="M177.7945,120.1577V94.9614H181.25v25.1963Z" transform="translate(0 0.0001)"/><path class="cls-4" d="M195.1817,98.0571v22.1006h-3.4555V98.0571h-6.3355V94.9614h16.126v3.0957Z" transform="translate(0 0.0001)"/><path class="cls-4" d="M219.7686,120.1577l-1.98-5.3633H207.0621l-1.9439,5.3633h-3.7793l9.7549-25.1963h3.0235l9.6469,25.1963Zm-11.5547-8.459h8.459l-4.2114-11.4824h-.0361Z" transform="translate(0 0.0001)"/><path class="cls-4" d="M227.9058,120.1577V94.9614h3.4556V117.062h10.9429v3.0957Z" transform="translate(0 0.0001)"/><path class="cls-4" d="M254.9058,94.9614h6.8033c6.4072,0,13.5341,3.3828,13.5341,12.49,0,9.3222-7.0546,12.706-13.894,12.706h-6.4434Zm6.1553,3.0957h-2.7V117.062h1.188c7.1992,0,12.0225-2.2676,12.0225-9.2861C271.5719,101.4048,267.6842,98.0571,261.0611,98.0571Z" transform="translate(0 0.0001)"/><path class="cls-4" d="M280.8253,120.1577V94.9614h15.1181v3.0957H284.2808v7.5586h11.6626v3.0957H284.2808v8.3506h11.6626v3.0957Z" transform="translate(0 0.0001)"/><path class="cls-4" d="M309.4805,97.6245c-2.664,0-4.5,1.26-4.5,3.4912,0,2.1963,2.4834,3.0235,5.2554,3.9961,3.5635,1.26,7.6309,2.916,7.6309,7.6309,0,5.6513-5.0034,7.8476-8.855,7.8476a12.0468,12.0468,0,0,1-9.1069-3.78l2.4477-2.3038c2.376,2.34,4.1758,2.9883,6.6953,2.9883,2.5918,0,5.1475-1.26,5.1475-4.3554,0-2.7715-2.7-3.7442-5.6153-4.752-3.42-1.1875-7.0913-2.88-7.0913-6.9111,0-4.751,3.4917-6.9473,7.5953-6.9473a12.3742,12.3742,0,0,1,7.811,2.5918l-2.124,2.52A8.2988,8.2988,0,0,0,309.4805,97.6245Z" transform="translate(0 0.0001)"/><path class="cls-4" d="M323.2691,120.1577V94.9614h3.4556v25.1963Z" transform="translate(0 0.0001)"/><path class="cls-4" d="M346.3077,109.2876v-3.0957h9.8633v9.5742A13.0234,13.0234,0,0,1,345.84,120.59c-7.7031,0-13.5342-5.2207-13.5342-13.0312,0-7.4512,6.0831-13.03,13.5342-13.03a12.9451,12.9451,0,0,1,9.7549,4.4639l-2.4482,2.0156a9.9594,9.9594,0,0,0-7.3067-3.3838,9.5884,9.5884,0,0,0-9.8633,9.9346c0,6.1191,4.1036,9.9355,9.8633,9.9355a9.8443,9.8443,0,0,0,6.875-2.6289v-5.5781Z" transform="translate(0 0.0001)"/><path class="cls-4" d="M379.7511,120.1577l-13.8223-18.79v18.79h-3.4561V94.9614h3.0245l13.8574,18.7891V94.9614h3.456v25.1963Z" transform="translate(0 0.0001)"/><path class="cls-4" d="M389.6524,120.1577V94.9614h15.1182v3.0957H393.1075v7.5586h11.6631v3.0957H393.1075v8.3506h11.6631v3.0957Z" transform="translate(0 0.0001)"/><path class="cls-4" d="M424.1378,120.1577l-7.5586-10.6553h-2.5918v10.6553h-3.4551V94.9614h7.4863c3.8516,0,8.6036,2.0157,8.6036,7.2344,0,4.2832-3.06,6.4434-6.1553,7.0918l7.9912,10.87Zm-6.2989-22.1006h-3.8515v8.35h3.1318c3.3477,0,5.8311-1.2226,5.8311-4.1035C422.95,99.7485,420.8985,98.0571,417.8389,98.0571Z" transform="translate(0 0.0001)"/><line id="Name_line_bottom" data-name="Name line bottom" class="cls-5" x1="112.1994" y1="53.0001" x2="621.1994" y2="53.0001"/><line id="Name_line_top" data-name="Name line top" class="cls-5" x1="112.1994" y1="3.0001" x2="621.1994" y2="3.0001"/></g></g></svg>